<svg t="1620805656042" class="icon" viewBox="0 0 1024 1024" version="1.1" xmlns="http://www.w3.org/2000/svg" p-id="1592" width="200" height="200"><path d="M512 1024C232.533 1024 4.267 795.733 4.267 516.267S232.533 8.533 512 8.533s507.733 228.267 507.733 507.734S791.467 1024 512 1024z m0-942.933c-238.933 0-435.2 196.266-435.2 435.2s196.267 435.2 435.2 435.2 435.2-194.134 435.2-435.2-194.133-435.2-435.2-435.2z" p-id="1593"></path><path d="M686.933 317.867H339.2c-19.2 0-36.267-17.067-36.267-36.267S320 245.333 339.2 245.333h347.733c19.2 0 36.267 17.067 36.267 36.267s-17.067 36.267-36.267 36.267z" p-id="1594"></path><path d="M512 851.2c-19.2 0-36.267-17.067-36.267-36.267V281.6c0-19.2 17.067-36.267 36.267-36.267 19.2 0 36.267 17.067 36.267 36.267v533.333c0 19.2-14.934 36.267-36.267 36.267z" p-id="1595"></path><path d="M736 701.867c-19.2 0-36.267-17.067-36.267-36.267V640c0-102.4-83.2-187.733-187.733-187.733S324.267 535.467 324.267 640v25.6c0 19.2-17.067 36.267-36.267 36.267-19.2 0-36.267-17.067-36.267-36.267V640c0-142.933 117.334-260.267 260.267-260.267S772.267 497.067 772.267 640v25.6c0 19.2-17.067 36.267-36.267 36.267z" p-id="1596"></path></svg>