<svg t="1620805690153" class="icon" viewBox="0 0 1024 1024" version="1.1" xmlns="http://www.w3.org/2000/svg" p-id="1722" width="200" height="200"><path d="M731.1 320.6c-40.1-6.2-77.1-34-92.6-71.1l-71-148.4c-21.6-49.5-89.5-49.5-114.2 0l-67.9 148.4c-18.5 37.1-52.5 64.9-92.6 71.1l-160.5 24.7c-49.4 6.2-71 68-33.9 105.1l120.4 123.7c27.8 27.8 40.1 68 33.9 108.2L225 855.5c-9.3 52.6 46.3 89.7 92.6 64.9l135.8-74.2c37-21.6 83.3-21.6 120.4 0l135.8 74.2c46.3 24.7 98.8-12.4 92.6-64.9l-30.9-173.2c-6.2-40.2 6.2-80.4 33.9-108.2l120.4-123.7c37-37.1 15.4-98.9-33.9-105.1l-160.6-24.7z" p-id="1723"></path></svg>