<svg t="1620805563419" class="icon" viewBox="0 0 1024 1024" version="1.1" xmlns="http://www.w3.org/2000/svg" p-id="1338" width="200" height="200"><path d="M450.1 637.9c0 23.2 18.9 42 41.9 42h257.9c23.2 0 41.9-18.6 41.9-42 0-23.2-18.9-42-41.9-42H492c-23.2 0-41.9 18.7-41.9 42z m-147.9 0c0 23.2 18.5 42 41.7 42h8.6c23 0 41.7-18.6 41.7-42 0-23.2-18.5-42-41.7-42h-8.6c-23.1 0-41.7 18.7-41.7 42z m77.9-251.8c0 23.2 18.9 42 41.9 42h282.9c23.2 0 41.9-18.6 41.9-42 0-23.2-18.9-42-41.9-42H422c-23.2 0-41.9 18.6-41.9 42z m-147.9 0c0 23.2 18.5 42 41.7 42h8.6c23 0 41.7-18.6 41.7-42 0-23.2-18.5-42-41.7-42h-8.6c-23.1 0-41.7 18.6-41.7 42z m567.6-209.9c89.5 0 159.9 61.6 159.9 139.9v391.8c0 78.4-70.4 139.9-159.9 139.9H224.2c-89.5 0-159.9-61.6-159.9-139.9V316.1c0-78.4 70.4-139.9 159.9-139.9h575.6z" p-id="1339"></path></svg>