<svg t="1622520055095" class="icon" viewBox="0 0 1024 1024" version="1.1" xmlns="http://www.w3.org/2000/svg" p-id="1690" width="200" height="200"><path d="M885.319 586.699c-20.631 0-37.351 16.721-37.351 37.344l0.296 224.093-672.569 0.296-0.296-672.568h224.389c20.625 0 37.344-16.721 37.344-37.344 0-20.631-16.719-37.351-37.344-37.351H175.399c-41.066 0.063-74.336 33.334-74.399 74.399v672.865c0 41.009 33.39 74.399 74.399 74.399h672.865c41.067-0.063 74.336-33.332 74.399-74.399v-224.39c0-20.623-16.721-37.344-37.344-37.344m-36.718-485.531H661.226c-20.625 0-37.351 16.721-37.351 37.351 0 20.623 16.727 37.344 37.351 37.344l134.158-0.222-309.992 309.953c-14.585 14.595-14.579 38.246 0.016 52.829 14.595 14.583 38.246 14.578 52.829-0.018l310.066-310.027v134.529c0 20.625 16.721 37.345 37.351 37.345 20.625 0 37.346-16.721 37.346-37.345v-187.34c-0.063-41.065-33.334-74.336-74.399-74.399" p-id="1691"></path></svg>