<svg t="1620990069768" class="icon" viewBox="0 0 1024 1024" version="1.1" xmlns="http://www.w3.org/2000/svg" p-id="1465" width="200" height="200"><path d="M512 0.00045a318.84786 318.84786 0 0 1 226.303901 93.696959A318.91186 318.91186 0 0 1 831.999859 320.000309a318.84786 318.84786 0 0 1-93.695958 226.303901A318.91186 318.91186 0 0 1 559.999979 636.41617V720.000134h159.99993a47.871979 47.871979 0 0 1 47.999979 47.999978 47.871979 47.871979 0 0 1-47.999979 47.999979H559.999979v159.93593a47.871979 47.871979 0 0 1-47.999979 47.999979 47.871979 47.871979 0 0 1-47.999979-47.999979V816.000091H304.000091a47.871979 47.871979 0 0 1-47.999979-47.999979 47.871979 47.871979 0 0 1 47.999979-47.999978h159.99993v-83.583964a318.84786 318.84786 0 0 1-178.303922-90.17596A318.84786 318.84786 0 0 1 192.000141 320.000309a318.84786 318.84786 0 0 1 93.695958-226.3029A318.84786 318.84786 0 0 1 512 0.00045z m0 95.999958c-123.519946 0-223.999902 100.479956-223.999902 223.999901s100.479956 223.999902 223.999902 223.999902 223.999902-100.479956 223.999902-223.999902S635.519946 96.000408 512 96.000408z" p-id="1466"></path></svg>