<svg t="1620990128264" class="icon" viewBox="0 0 1170 1024" version="1.1" xmlns="http://www.w3.org/2000/svg" p-id="1592" width="200" height="200"><path d="M950.857 18.286q0-8 5.143-13.143T969.143 0h164.571q14.857 0 25.715 10.857t10.857 25.714v164.572q0 8-5.143 13.143T1152 219.429h-36.571q-8 0-13.143-5.143t-5.143-13.143V124.57L952 270.286q43.429 54.285 61.429 122.285t5.428 141.143q-18.286 102.857-94 177.143t-179.143 89.714Q618.286 820 512 749.143q-66.857 44.571-146.286 53.143v75.428h54.857q8 0 13.143 5.143T438.857 896v36.571q0 8-5.143 13.143t-13.143 5.143h-54.857v54.857q0 8-5.143 13.143T347.43 1024h-36.572q-8 0-13.143-5.143t-5.143-13.143v-54.857h-54.857q-8 0-13.143-5.143t-5.142-13.143V896q0-8 5.142-13.143t13.143-5.143h54.857v-75.428Q204 792.57 132.857 739.714T26 604 3.429 428.571Q17.714 321.714 94.57 244.286t183.143-94q128-19.429 234.286 51.428 83.429-55.428 182.857-55.428 114.857 0 205.143 72l145.714-145.143h-76.571q-8 0-13.143-5.143t-5.143-13.143V18.286zM512 654.286q73.143-74.857 73.143-178.857T512 296.57q-73.143 74.858-73.143 178.858T512 654.286zM73.143 475.429q0 105.714 75.143 180.857t180.857 75.143q66.857 0 124.571-32.572-88-95.428-88-223.428t88-223.429Q396 219.429 329.143 219.429q-105.714 0-180.857 75.142T73.143 475.43z m621.714 256q105.714 0 180.857-75.143t75.143-180.857-75.143-180.858-180.857-75.142Q628 219.429 570.286 252q88 95.429 88 223.429t-88 223.428Q628 731.43 694.857 731.43z" p-id="1593"></path></svg>