<?xml version="1.0" standalone="no"?><!DOCTYPE svg PUBLIC "-//W3C//DTD SVG 1.1//EN" "http://www.w3.org/Graphics/SVG/1.1/DTD/svg11.dtd"><svg t="1620736092094" class="icon" viewBox="0 0 1024 1024" version="1.1" xmlns="http://www.w3.org/2000/svg" p-id="1465" xmlns:xlink="http://www.w3.org/1999/xlink" width="200" height="200"><defs><style type="text/css"></style></defs><path d="M425.6 300.6c-6.5-3.9-13.9-5.9-21.4-5.9-23 0-41.6 18.6-41.6 41.6v352c0 7.5 2 14.9 5.9 21.4 11.8 19.7 37.3 26.1 57 14.3l269.6-161.7c8.2-4.9 15-11.8 20-20 16.5-27.6 7.6-63.3-20-79.8L425.6 300.6z m-162.7-204h498.9C853.5 96.6 928 171 928 262.9v498.9c0 91.8-74.4 166.3-166.3 166.3H262.9C171 928 96.6 853.6 96.6 761.7V262.9C96.6 171 171 96.6 262.9 96.6z" p-id="1466"></path></svg>