<?xml version="1.0" standalone="no"?><!DOCTYPE svg PUBLIC "-//W3C//DTD SVG 1.1//EN" "http://www.w3.org/Graphics/SVG/1.1/DTD/svg11.dtd"><svg t="1623750746100" class="icon" viewBox="0 0 1024 1024" version="1.1" xmlns="http://www.w3.org/2000/svg" p-id="4568" xmlns:xlink="http://www.w3.org/1999/xlink" width="200" height="200"><defs><style type="text/css"></style></defs><path d="M512 0c281.6 0 512 230.4 512 512s-230.4 512-512 512S0 793.6 0 512 230.4 0 512 0z m0 938.67008c234.67008 0 426.67008-192 426.67008-426.67008S746.67008 85.32992 512 85.32992 85.32992 277.32992 85.32992 512s192 426.67008 426.67008 426.67008z m0-512c25.6 0 42.67008 17.05984 42.67008 42.65984V768c0 25.6-17.07008 42.67008-42.67008 42.67008S469.32992 793.6 469.32992 768V469.32992c0-21.32992 17.07008-42.65984 42.67008-42.65984z m0-81.07008c-25.6 0-46.92992-21.32992-46.92992-46.92992S486.4 251.72992 512 251.72992s46.93504 21.34016 46.93504 46.94016S537.6 345.6 512 345.6z" p-id="4569"></path></svg>