<svg t="1620805730339" class="icon" viewBox="0 0 1024 1024" version="1.1" xmlns="http://www.w3.org/2000/svg" p-id="1849" width="200" height="200"><path d="M292.267 966.4V313.6h6.4l179.2-224c36.266-40.533 102.4-44.8 142.933-6.4 21.333 21.333 36.267 51.2 32 83.2l-6.4 147.2h270.933c32 0 66.134 14.933 87.467 44.8 19.2 25.6 21.333 61.867 14.933 91.733L902.4 838.4c-19.2 72.533-81.067 123.733-157.867 128H292.267z m-66.134 0H134.4c-49.067 2.133-91.733-23.467-113.067-61.867-10.666-21.333-19.2-44.8-19.2-66.133V445.867c0-46.934 25.6-91.734 66.134-113.067 21.333-10.667 44.8-14.933 66.133-19.2h93.867v652.8z" p-id="1850"></path><path d="M292.267 966.4V313.6h6.4l179.2-224c36.266-40.533 102.4-44.8 142.933-6.4 21.333 21.333 36.267 51.2 32 83.2l-6.4 147.2h270.933c32 0 66.134 14.933 87.467 44.8 19.2 25.6 21.333 61.867 14.933 91.733L902.4 838.4c-19.2 72.533-81.067 123.733-157.867 128H292.267z m-66.134 0H134.4c-49.067 2.133-91.733-23.467-113.067-61.867-10.666-21.333-19.2-44.8-19.2-66.133V445.867c0-46.934 25.6-91.734 66.134-113.067 21.333-10.667 44.8-14.933 66.133-19.2h93.867v652.8z" p-id="1851"></path></svg>