<svg t="1640858260136" class="icon" viewBox="0 0 1024 1024" version="1.1" xmlns="http://www.w3.org/2000/svg" p-id="3660" width="200" height="200"><path d="M464 784.352a1.5 1.5 0 1 0 96 0 1.5 1.5 0 1 0-96 0z" p-id="3661"></path><path d="M512 960C264.96 960 64 759.04 64 512S264.96 64 512 64s448 200.96 448 448-200.96 448-448 448z m0-831.712c-211.584 0-383.712 172.128-383.712 383.712 0 211.552 172.128 383.712 383.712 383.712 211.552 0 383.712-172.16 383.712-383.712 0-211.584-172.16-383.712-383.712-383.712z" p-id="3662"></path><path d="M512 673.696c-17.664 0-32-14.336-32-32v-54.112c0-52.352 40-92.352 75.328-127.648C581.216 434.016 608 407.264 608 385.92c0-53.344-43.072-96.736-96-96.736-53.824 0-96 41.536-96 94.56 0 17.664-14.336 32-32 32s-32-14.336-32-32c0-87.424 71.776-158.56 160-158.56S672 297.28 672 385.92c0 47.904-36.32 84.192-71.424 119.296C572.736 532.992 544 561.728 544 587.552v54.112c0 17.664-14.336 32.032-32 32.032z" p-id="3663"></path></svg>