<svg t="1620727950423" class="icon" viewBox="0 0 1463 1024" version="1.1" xmlns="http://www.w3.org/2000/svg" p-id="1465" width="200" height="200"><path d="M1389.714 585.143H73.143C32.914 585.143 0 552.229 0 512s32.914-73.143 73.143-73.143h1316.571c40.229 0 73.143 32.914 73.143 73.143s-32.914 73.143-73.143 73.143z m0-438.857H73.143C32.914 146.286 0 113.37 0 73.143S32.914 0 73.143 0h1316.571c40.229 0 73.143 32.914 73.143 73.143s-32.914 73.143-73.143 73.143z m0 877.714H73.143C32.914 1024 0 991.086 0 950.857s32.914-73.143 73.143-73.143h1316.571c40.229 0 73.143 32.915 73.143 73.143S1429.943 1024 1389.714 1024z" p-id="1466"></path></svg>